<svg version="1.2" xmlns="http://www.w3.org/2000/svg" viewBox="0 0 46 50" width="1080" height="1174">
	<title>Group-svg</title>
	<style>
		.s0 { fill: #ffffff } 
	</style>
	<path id="Layer" class="s0" d="m32.2 25.4c-5.4 0.1-9.8 4.5-9.8 9.9 0 2.5 1.2 5 2.7 6.7l3-2.1c-1.1-1.1-1.8-2.6-1.8-4.3 0-3.4 2.8-6.2 6.3-6.2 2.5-0.1 4.7 1.4 5.7 3.6l2.9-2.1c-1.6-3.1-5.2-5.5-9-5.5z"/>
	<path id="Layer" class="s0" d="m30.6 12.5c-11.2 0-20.3 9.1-20.3 20.4 0 2.9 0.6 5.7 1.7 8.3l3.6-2.5c-0.7-1.8-1.1-3.8-1.1-5.8 0-8.9 7.2-16.2 16.1-16.2 4.2 0 8.1 1.6 10.9 4.3l3.6-2.5c-3.7-3.7-8.8-6-14.5-6z"/>
	<path id="Layer" class="s0" d="m35.8 35.4l-4.6 3.2 7.4 10.9 4.7-3.2z"/>
	<path id="Layer" class="s0" d="m25.7 0.1c-14.3 0.3-25.6 12-25.4 26.3 0.1 2.5 0.5 4.9 1.2 7.1l3.9-2.8q-0.5-2.1-0.5-4.4c-0.2-11.7 9.1-21.4 20.9-21.6 4.3-0.1 8.3 1.1 11.7 3.2l4-2.8c-4.4-3.2-9.9-5.1-15.8-5z"/>
	<path id="Layer" class="s0" d="m38.9 35.6c0 3.5-2.8 6.3-6.3 6.3-1.8 0-3.4-0.7-4.5-1.9l10.2-7q0.5 1.2 0.6 2.6z"/>
</svg>