<svg version="1.2" xmlns="http://www.w3.org/2000/svg" viewBox="0 0 140 79" width="1080" height="609">
	<title>Logo_ mic-svg</title>
	<style>
		.s0 { fill: #ffffff } 
	</style>
	<path id="Layer" class="s0" d="m64.1 20.2c2.4 0 4.2 0.8 5.3 2.2 1-1.4 2.9-2.2 5.2-2.2 4.4 0 7.2 2.8 7.2 7.8v10.3h-5.3v-10.5c0-1.7-0.9-2.7-2.2-2.7-1.4 0-2.3 1-2.3 2.7v10.5h-5.3v-10.5c0-1.7-0.8-2.7-2.2-2.7-1.3 0-2.2 1-2.2 2.7l-0.3 13.5h-5.3l0.3-13.3c0-5 2.7-7.8 7.1-7.8z"/>
	<path id="Layer" class="s0" d="m92.8 29.5c0-5.5 3.9-9.1 9.3-9.1q1.3 0 2.8 0.2v4.7c-0.8-0.1-1.6-0.1-2.2-0.1-3 0-4.7 1.8-4.7 4.3 0 2.5 1.7 4.3 4.7 4.3 0.6 0 1.4-0.1 2.2-0.2v4.8q-1.5 0.2-2.8 0.2c-5.4 0-9.3-3.7-9.3-9.1z"/>
	<path id="Layer" fill-rule="evenodd" class="s0" d="m112.8 31.8c0-3.1 1.7-5.3 4.4-6.4-1-1.6-1.3-2.8-1.3-3.9 0-3.6 2.8-5.6 7.1-5.6 1 0 2.2 0.1 3.5 0.3v4.2c-1.3-0.2-2.4-0.3-3.2-0.3-1.8 0-2.5 0.5-2.5 1.7 0 0.7 0.3 1.4 1.2 2.6l4.1 5.1c1-1.5 1.7-2.2 2.5-4.1l3.9 2.1c-1.1 2.2-2.1 3.4-3.7 5.3l4.1 5.5h-6l-1.4-2.1c-1.6 1.4-3.6 2.1-5.7 2.1-4.2 0-7-2.6-7-6.5zm7.5 2.3c0.9 0 1.8-0.3 2.7-1l-3.4-4.4c-1.3 0.4-2.1 1.4-2.1 2.8 0 1.6 1.1 2.6 2.8 2.6z"/>
	<path id="Layer" fill-rule="evenodd" class="s0" d="m56.9 44h4.9v1.6c1.3-1.3 3.3-2 5.3-2 5.1 0 9.3 3.9 9.3 9.6 0 5.7-4.2 9.7-9.3 9.7-1.8 0-3.6-0.6-4.8-1.6 0.1 1.5 0.1 3.2 0.1 4.8v3.4h-5.5zm9.5 13.9c2.6 0 4.5-1.8 4.5-4.6 0-2.8-1.9-4.6-4.5-4.6-2.5 0-4.4 1.8-4.4 4.6 0 2.8 1.9 4.6 4.4 4.6z"/>
	<path id="Layer" fill-rule="evenodd" class="s0" d="m78.9 53.4c0-5.7 4.5-9.8 9.9-9.8 5.5 0 10 4.1 10 9.8 0 5.7-4.5 9.7-10 9.7-5.4 0-9.9-4-9.9-9.7zm9.9 4.6c2.5 0 4.4-1.9 4.4-4.6 0-2.8-1.9-4.6-4.4-4.6-2.4 0-4.3 1.8-4.3 4.6 0 2.7 1.9 4.6 4.3 4.6z"/>
	<path id="Layer" class="s0" d="m88.5 63.1l-0.3-5.1c1.5 0.2 15.4 0 16.2 0 1.4 0 2-0.3 2-1 0-0.6-0.4-1.2-1.6-2l-1.1-0.8c-2.1-1.6-3-3.1-3-5.2 0-3.4 2.5-5.4 6.8-5.4q1.4 0 3 0.3v4.3c-1-0.2-1.8-0.2-2.3-0.2-1.4 0-2.1 0.3-2.1 0.9 0 0.5 0.3 0.8 1.5 1.6l0.9 0.7c2.6 1.8 3.6 3.5 3.6 5.7 0 3.7-2.7 5.8-7.4 5.8-1.1 0-14.8 0.6-16.2 0.4z"/>
	<path id="Layer" fill-rule="evenodd" class="s0" d="m114.4 53.4c0-5.8 4.2-9.8 9.5-9.8 5.1 0 9.8 3.5 9 11.3h-13.3c0.5 2.2 2.3 3.5 4.7 3.5q3 0 5-2.6l3.6 3c-2.1 2.7-5 4.3-8.7 4.3-5.9 0-9.8-4-9.8-9.7zm13.4-2.4c-0.4-1.9-1.8-2.9-3.9-2.9-2.1 0-3.7 1.2-4.3 2.9z"/>
	<path id="Layer" class="s0" d="m133.3 24.7c1.3 0 2.4-1.1 2.4-2.4 0-1.3-1.1-2.3-2.4-2.3-1.3 0-2.3 1-2.3 2.3 0 1.3 1 2.4 2.3 2.4z"/>
	<path id="Layer" class="s0" d="m87.3 24.1c1.3 0 2.4-1.1 2.4-2.4 0-1.3-1.1-2.3-2.4-2.3-1.3 0-2.3 1-2.3 2.3 0 1.3 1 2.4 2.3 2.4z"/>
	<path id="Layer" class="s0" d="m90 26.7h-5.4v11.6h5.4z"/>
	<path id="Layer" class="s0" d="m36.2 45.4c-5.4 0.1-9.8 4.5-9.8 9.9 0 2.5 1.2 5 2.7 6.7l3-2.1c-1.1-1.1-1.8-2.6-1.8-4.3 0-3.4 2.8-6.2 6.3-6.2 2.5-0.1 4.7 1.4 5.7 3.6l2.9-2.1c-1.6-3.1-5.2-5.5-9-5.5z"/>
	<path id="Layer" class="s0" d="m34.6 32.5c-11.2 0-20.3 9.1-20.3 20.4 0 2.9 0.6 5.7 1.7 8.3l3.6-2.5c-0.7-1.8-1.1-3.8-1.1-5.8 0-8.9 7.2-16.2 16.1-16.2 4.2 0 8.1 1.6 10.9 4.3l3.6-2.5c-3.7-3.7-8.8-6-14.5-6z"/>
	<path id="Layer" class="s0" d="m39.8 55.4l-4.6 3.2 7.4 10.9 4.7-3.2z"/>
	<path id="Layer" class="s0" d="m29.7 20.1c-14.3 0.3-25.6 12-25.4 26.3 0.1 2.5 0.5 4.9 1.2 7.1l3.9-2.8q-0.5-2.1-0.5-4.4c-0.2-11.7 9.1-21.4 20.9-21.6 4.3-0.1 8.3 1.1 11.7 3.2l4-2.8c-4.4-3.2-9.9-5.1-15.8-5z"/>
	<path id="Layer" class="s0" d="m42.9 55.6c0 3.5-2.8 6.3-6.3 6.3-1.8 0-3.4-0.7-4.5-1.9l10.2-7q0.5 1.2 0.6 2.6z"/>
</svg>