<svg width="14" height="19" viewBox="0 0 14 19" fill="none" xmlns="http://www.w3.org/2000/svg">
<path d="M1.98077 19C1.43589 19 0.969542 18.8195 0.581725 18.4586C0.193908 18.0977 0 17.6512 0 17.1192V3.76533C0 3.24738 0.1766 2.7929 0.5298 2.40188C0.883 2.01085 1.31857 1.76149 1.83652 1.65381L8.66345 0.217258C9.16473 0.109575 9.61538 0.214067 10.0154 0.530733C10.4154 0.8474 10.6154 1.26471 10.6154 1.78266V13.1115C10.6154 13.4923 10.4942 13.8285 10.2519 14.1202C10.0096 14.4118 9.70642 14.5993 9.3423 14.6827L1.75577 16.3346C1.55449 16.3807 1.37821 16.4727 1.22692 16.6105C1.07564 16.7484 1 16.9179 1 17.1192C1 17.3795 1.09743 17.5913 1.2923 17.7548C1.48718 17.9182 1.71667 18 1.98077 18H12.3846C12.5641 18 12.7115 17.9423 12.8269 17.8269C12.9423 17.7115 13 17.5641 13 17.3846V3.49996C13 3.35764 13.0478 3.23873 13.1433 3.14323C13.2388 3.04772 13.3577 2.99996 13.5 2.99996C13.6423 2.99996 13.7612 3.04772 13.8567 3.14323C13.9522 3.23873 14 3.35764 14 3.49996V17.3846C14 17.832 13.8426 18.2131 13.5279 18.5279C13.2132 18.8426 12.8321 19 12.3846 19H1.98077ZM3.38463 14.9826L9.13463 13.7384C9.27564 13.7128 9.39103 13.6423 9.48078 13.5269C9.57051 13.4115 9.61537 13.2833 9.61537 13.1423V1.80766C9.61537 1.61534 9.53846 1.45508 9.38463 1.32688C9.23078 1.19868 9.05769 1.15381 8.86537 1.19226L3.38463 2.35958V14.9826ZM2.38463 15.1903V2.56726L1.95192 2.66151C1.67884 2.72047 1.45192 2.85092 1.27115 3.05283C1.09038 3.25477 1 3.49227 1 3.76533V15.6326C1.1218 15.5608 1.24456 15.4996 1.36828 15.449C1.49199 15.3983 1.62116 15.3583 1.75577 15.3288L2.38463 15.1903Z" fill="#FAFAFA"/>
</svg>
