<svg width="18" height="18" viewBox="0 0 18 18" fill="none" xmlns="http://www.w3.org/2000/svg">
<path d="M9.028 14.2308C9.24908 14.2308 9.43558 14.1545 9.5875 14.0018C9.73942 13.8492 9.81538 13.6623 9.81538 13.4412C9.81538 13.2202 9.73906 13.0337 9.58642 12.8817C9.43377 12.7298 9.24692 12.6538 9.02585 12.6538C8.80477 12.6538 8.61827 12.7302 8.46635 12.8828C8.31442 13.0355 8.23845 13.2223 8.23845 13.4434C8.23845 13.6645 8.31478 13.851 8.46743 14.0029C8.62008 14.1548 8.80693 14.2308 9.028 14.2308ZM9.00335 18C7.7588 18 6.58872 17.7638 5.4931 17.2915C4.39748 16.8192 3.44444 16.1782 2.63397 15.3685C1.82352 14.5588 1.18192 13.6066 0.70915 12.512C0.236383 11.4174 0 10.2479 0 9.00335C0 7.7588 0.236158 6.58872 0.708475 5.4931C1.18081 4.39748 1.82183 3.44444 2.63153 2.63398C3.44123 1.82353 4.39337 1.18192 5.48795 0.709151C6.58255 0.236384 7.75212 0 8.99665 0C10.2412 0 11.4113 0.236158 12.5069 0.708475C13.6025 1.18081 14.5556 1.82182 15.366 2.63152C16.1765 3.44122 16.8181 4.39337 17.2908 5.48795C17.7636 6.58255 18 7.75212 18 8.99665C18 10.2412 17.7638 11.4113 17.2915 12.5069C16.8192 13.6025 16.1782 14.5556 15.3685 15.366C14.5588 16.1765 13.6066 16.8181 12.512 17.2909C11.4174 17.7636 10.2479 18 9.00335 18ZM9 17C11.2333 17 13.125 16.225 14.675 14.675C16.225 13.125 17 11.2333 17 9C17 6.76667 16.225 4.875 14.675 3.325C13.125 1.775 11.2333 1 9 1C6.76667 1 4.875 1.775 3.325 3.325C1.775 4.875 1 6.76667 1 9C1 11.2333 1.775 13.125 3.325 14.675C4.875 16.225 6.76667 17 9 17ZM9.06198 4.73845C9.56809 4.73845 10.0042 4.8956 10.3702 5.2099C10.7362 5.52418 10.9192 5.91703 10.9192 6.38845C10.9192 6.75512 10.8163 7.08653 10.6106 7.3827C10.4048 7.67885 10.1667 7.95193 9.89615 8.20193C9.55348 8.51263 9.25179 8.8544 8.99108 9.22725C8.73036 9.6001 8.58077 10.0109 8.5423 10.4596C8.52948 10.5904 8.57019 10.6997 8.66442 10.7875C8.75866 10.8753 8.86859 10.9192 8.99423 10.9192C9.12884 10.9192 9.24198 10.8744 9.33365 10.7846C9.42532 10.6949 9.48333 10.5891 9.5077 10.4673C9.57437 10.1301 9.70834 9.83044 9.90963 9.56827C10.1109 9.30609 10.3317 9.05779 10.5721 8.82337C10.9176 8.47959 11.2247 8.10492 11.4933 7.69935C11.7619 7.2938 11.8962 6.84145 11.8962 6.3423C11.8962 5.60768 11.6176 5.00159 11.0606 4.52402C10.5035 4.04646 9.85 3.80768 9.1 3.80768C8.54358 3.80768 8.02596 3.93781 7.54713 4.19807C7.06828 4.45832 6.68526 4.81858 6.39808 5.27885C6.33269 5.3891 6.31175 5.50316 6.33525 5.62103C6.35875 5.73887 6.42222 5.82836 6.52565 5.88947C6.65727 5.95931 6.79038 5.97563 6.925 5.93845C7.05962 5.90128 7.17821 5.82373 7.28077 5.70578C7.50257 5.43013 7.76379 5.19999 8.06443 5.01537C8.36506 4.83076 8.69758 4.73845 9.06198 4.73845Z" fill="#FAFAFA"/>
</svg>
