<svg width="14" height="16" viewBox="0 0 14 16" fill="none" xmlns="http://www.w3.org/2000/svg">
<path d="M1 14.9999H4.6923V9.92293C4.6923 9.69408 4.76971 9.50226 4.92452 9.34746C5.07932 9.19264 5.27115 9.11523 5.5 9.11523H8.5C8.72885 9.11523 8.92067 9.19264 9.07547 9.34746C9.23029 9.50226 9.3077 9.69408 9.3077 9.92293V14.9999H13V6.30756C13 6.20499 12.9776 6.11204 12.9327 6.02871C12.8878 5.94538 12.8269 5.87166 12.75 5.80756L7.36538 1.74986C7.26281 1.66011 7.14102 1.61523 7 1.61523C6.85898 1.61523 6.73719 1.66011 6.63463 1.74986L1.25 5.80756C1.17308 5.87166 1.11218 5.94538 1.0673 6.02871C1.02243 6.11204 1 6.20499 1 6.30756V14.9999ZM0 14.9999V6.30756C0 6.05178 0.0572085 5.80947 0.171625 5.58064C0.286058 5.35179 0.444233 5.16332 0.64615 5.01523L6.03077 0.93831C6.31256 0.722927 6.63461 0.615234 6.99693 0.615234C7.35923 0.615234 7.68332 0.722927 7.96922 0.93831L13.3539 5.01523C13.5558 5.16332 13.7139 5.35179 13.8284 5.58064C13.9428 5.80947 14 6.05178 14 6.30756V14.9999C14 15.2678 13.9003 15.5015 13.701 15.7008C13.5016 15.9002 13.268 15.9999 13 15.9999H9.11537C8.88654 15.9999 8.69472 15.9225 8.5399 15.7677C8.3851 15.6128 8.3077 15.421 8.3077 15.1922V10.1153H5.6923V15.1922C5.6923 15.421 5.6149 15.6128 5.4601 15.7677C5.30528 15.9225 5.11346 15.9999 4.88463 15.9999H1C0.73205 15.9999 0.498392 15.9002 0.299025 15.7008C0.099675 15.5015 0 15.2678 0 14.9999Z" fill="#E4E4E4"/>
</svg>
