<svg width="20" height="15" viewBox="0 0 20 15" fill="none" xmlns="http://www.w3.org/2000/svg">
<path d="M11.8846 5.5922V4.66143C12.4218 4.38964 12.9971 4.1858 13.6106 4.0499C14.224 3.914 14.8539 3.84605 15.5 3.84605C15.8692 3.84605 16.2237 3.86977 16.5635 3.9172C16.9032 3.96463 17.2538 4.03194 17.6154 4.11913V5.02683C17.2667 4.91529 16.9266 4.83805 16.5952 4.7951C16.2638 4.75215 15.8987 4.73068 15.5 4.73068C14.8539 4.73068 14.2231 4.80343 13.6077 4.94895C12.9923 5.09445 12.418 5.30887 11.8846 5.5922ZM11.8846 11.0538V10.0845C12.3962 9.81273 12.9683 9.60888 13.601 9.47298C14.2337 9.33708 14.8667 9.26913 15.5 9.26913C15.8692 9.26913 16.2237 9.29284 16.5635 9.34028C16.9032 9.38771 17.2538 9.45502 17.6154 9.5422V10.4499C17.2667 10.3384 16.9266 10.2611 16.5952 10.2182C16.2638 10.1752 15.8987 10.1538 15.5 10.1538C14.8539 10.1538 14.2231 10.232 13.6077 10.3884C12.9923 10.5448 12.418 10.7666 11.8846 11.0538ZM11.8846 8.3422V7.37298C12.4218 7.10118 12.9971 6.89733 13.6106 6.76143C14.224 6.62554 14.8539 6.5576 15.5 6.5576C15.8692 6.5576 16.2237 6.58132 16.5635 6.62875C16.9032 6.67618 17.2538 6.74349 17.6154 6.83068V7.73838C17.2667 7.62683 16.9266 7.54958 16.5952 7.50663C16.2638 7.46368 15.8987 7.4422 15.5 7.4422C14.8539 7.4422 14.2231 7.52137 13.6077 7.6797C12.9923 7.83803 12.418 8.05887 11.8846 8.3422ZM4.5 12.0384C5.37308 12.0384 6.22213 12.1387 7.04713 12.3393C7.87213 12.54 8.68975 12.8666 9.5 13.3191V3.5076C8.7782 2.99222 7.98268 2.60568 7.11345 2.34798C6.24423 2.09029 5.37308 1.96145 4.5 1.96145C3.9 1.96145 3.37468 1.99734 2.92403 2.06913C2.47339 2.14093 1.97308 2.27426 1.42308 2.46913C1.26923 2.52041 1.16025 2.59413 1.09615 2.69028C1.03205 2.78644 1 2.89222 1 3.0076V12.023C1 12.2025 1.0641 12.3339 1.1923 12.4172C1.32052 12.5005 1.46154 12.5102 1.61538 12.4461C1.98076 12.323 2.40288 12.2243 2.88173 12.1499C3.36057 12.0755 3.9 12.0384 4.5 12.0384ZM10.5 13.3191C11.3103 12.8666 12.1279 12.54 12.9529 12.3393C13.7779 12.1387 14.6269 12.0384 15.5 12.0384C16.1 12.0384 16.6394 12.0755 17.1183 12.1499C17.5971 12.2243 18.0192 12.323 18.3846 12.4461C18.5385 12.5102 18.6795 12.5005 18.8077 12.4172C18.9359 12.3339 19 12.2025 19 12.023V3.0076C19 2.89222 18.968 2.78965 18.9039 2.6999C18.8398 2.61015 18.7308 2.53323 18.5769 2.46913C18.0269 2.27426 17.5266 2.14093 17.076 2.06913C16.6253 1.99734 16.1 1.96145 15.5 1.96145C14.6269 1.96145 13.7558 2.09029 12.8865 2.34798C12.0173 2.60568 11.2218 2.99222 10.5 3.5076V13.3191ZM10 14.7692C9.18718 14.2127 8.31411 13.7852 7.38077 13.4865C6.44744 13.1877 5.48718 13.0384 4.5 13.0384C3.97948 13.0384 3.46827 13.082 2.96635 13.1692C2.46442 13.2563 1.97563 13.3961 1.5 13.5884C1.13718 13.7332 0.796475 13.6897 0.477875 13.4576C0.159292 13.2256 0 12.905 0 12.4961V2.83068C0 2.58323 0.0650583 2.35373 0.195175 2.1422C0.325308 1.93067 0.507683 1.78323 0.7423 1.6999C1.32948 1.44092 1.94038 1.25309 2.575 1.13643C3.20962 1.01976 3.85128 0.961426 4.5 0.961426C5.47948 0.961426 6.43493 1.10245 7.36635 1.3845C8.29775 1.66655 9.17563 2.07681 10 2.61528C10.8244 2.07681 11.7023 1.66655 12.6337 1.3845C13.5651 1.10245 14.5205 0.961426 15.5 0.961426C16.1487 0.961426 16.7904 1.01976 17.425 1.13643C18.0596 1.25309 18.6705 1.44092 19.2577 1.6999C19.4923 1.78323 19.6747 1.93067 19.8048 2.1422C19.9349 2.35373 20 2.58323 20 2.83068V12.4961C20 12.905 19.8279 13.2191 19.4837 13.4384C19.1394 13.6576 18.7731 13.6948 18.3846 13.5499C17.9218 13.3704 17.4491 13.2403 16.9664 13.1595C16.4837 13.0788 15.9949 13.0384 15.5 13.0384C14.5128 13.0384 13.5526 13.1877 12.6192 13.4865C11.6859 13.7852 10.8128 14.2127 10 14.7692Z" fill="#E4E4E4"/>
</svg>
