<svg width="18" height="18" viewBox="0 0 18 18" fill="none" xmlns="http://www.w3.org/2000/svg">
<path d="M7.95959 18C7.72752 18 7.52591 17.9237 7.35476 17.7712C7.18361 17.6186 7.07752 17.4282 7.03649 17.2L6.77304 15.1077C6.4538 15.0115 6.10861 14.8603 5.73746 14.6538C5.36631 14.4474 5.0506 14.2263 4.79034 13.9904L2.87496 14.8135C2.66343 14.9071 2.44869 14.9173 2.23074 14.8442C2.01279 14.7712 1.84484 14.6327 1.72689 14.4289L0.648037 12.5712C0.530087 12.3673 0.49547 12.1545 0.544187 11.9327C0.592904 11.7109 0.708929 11.5288 0.892262 11.3865L2.56341 10.1365C2.53393 9.95576 2.50957 9.76954 2.49034 9.57788C2.4711 9.38621 2.46149 9.19999 2.46149 9.01923C2.46149 8.85128 2.4711 8.67467 2.49034 8.48942C2.50957 8.30417 2.53393 8.09553 2.56341 7.86348L0.892262 6.61348C0.708929 6.47116 0.596112 6.2859 0.553812 6.0577C0.511496 5.82948 0.549312 5.61346 0.667262 5.40963L1.72689 3.6096C1.84484 3.41858 2.01279 3.28333 2.23074 3.20385C2.44869 3.12435 2.66343 3.1314 2.87496 3.225L4.77111 4.02885C5.06983 3.78013 5.3929 3.55578 5.74034 3.35578C6.08777 3.15578 6.4256 3.00128 6.75381 2.8923L7.03649 0.8C7.07752 0.5718 7.18361 0.381416 7.35476 0.22885C7.52591 0.0762831 7.72752 0 7.95959 0H10.0403C10.2724 0 10.474 0.0762831 10.6452 0.22885C10.8163 0.381416 10.9224 0.5718 10.9634 0.8L11.2269 2.91153C11.6102 3.04614 11.949 3.20063 12.2432 3.375C12.5375 3.54935 12.8404 3.7673 13.1519 4.02885L15.1442 3.225C15.3557 3.1314 15.5705 3.12435 15.7884 3.20385C16.0064 3.28333 16.1743 3.41858 16.2923 3.6096L17.3519 5.42885C17.4698 5.6327 17.5045 5.84552 17.4557 6.0673C17.407 6.2891 17.291 6.47116 17.1077 6.61348L15.3596 7.92115C15.4147 8.12757 15.4455 8.31699 15.4519 8.48942C15.4583 8.66186 15.4615 8.83205 15.4615 9C15.4615 9.15513 15.4551 9.31892 15.4423 9.49135C15.4295 9.66378 15.4 9.87243 15.3538 10.1173L17.0442 11.3865C17.2275 11.5288 17.3468 11.7109 17.4019 11.9327C17.457 12.1545 17.4256 12.3673 17.3077 12.5712L16.2423 14.4096C16.1243 14.6135 15.9532 14.7519 15.7288 14.825C15.5044 14.8981 15.2865 14.8878 15.075 14.7942L13.1519 13.9712C12.8404 14.2327 12.5269 14.4571 12.2115 14.6442C11.8961 14.8314 11.5679 14.9795 11.2269 15.0885L10.9634 17.2C10.9224 17.4282 10.8163 17.6186 10.6452 17.7712C10.474 17.9237 10.2724 18 10.0403 18H7.95959ZM7.99996 17H9.95574L10.325 14.2923C10.8288 14.159 11.2823 13.976 11.6855 13.7433C12.0887 13.5106 12.4993 13.1917 12.9173 12.7866L15.4115 13.85L16.4057 12.15L14.2173 10.5058C14.3006 10.2212 14.3557 9.9593 14.3827 9.7202C14.4096 9.4811 14.423 9.24103 14.423 9C14.423 8.74615 14.4096 8.50608 14.3827 8.2798C14.3557 8.05352 14.3006 7.80448 14.2173 7.5327L16.4442 5.85L15.45 4.15L12.898 5.21922C12.5955 4.88717 12.1977 4.57596 11.7048 4.28557C11.2118 3.99519 10.7455 3.80257 10.3057 3.7077L9.99996 1H8.00574L7.69419 3.68845C7.19034 3.79615 6.72719 3.96955 6.30476 4.20865C5.88233 4.44775 5.46214 4.77627 5.04419 5.19422L2.54996 4.15L1.55574 5.85L3.72496 7.46922C3.64163 7.69359 3.5833 7.93718 3.54996 8.2C3.51663 8.46282 3.49996 8.73589 3.49996 9.01923C3.49996 9.27308 3.51663 9.525 3.54996 9.775C3.5833 10.025 3.63522 10.2686 3.70574 10.5058L1.55574 12.15L2.54996 13.85L5.02496 12.8C5.41726 13.1961 5.82464 13.5138 6.24709 13.7529C6.66952 13.992 7.14548 14.1782 7.67496 14.3116L7.99996 17ZM8.97304 11.5C9.67047 11.5 10.2615 11.2577 10.7461 10.7731C11.2307 10.2885 11.473 9.69743 11.473 9C11.473 8.30257 11.2307 7.71154 10.7461 7.22693C10.2615 6.74231 9.67047 6.5 8.97304 6.5C8.27175 6.5 7.67976 6.74231 7.19706 7.22693C6.71438 7.71154 6.47304 8.30257 6.47304 9C6.47304 9.69743 6.71438 10.2885 7.19706 10.7731C7.67976 11.2577 8.27175 11.5 8.97304 11.5Z" fill="#FAFAFA"/>
</svg>
