<svg width="18" height="18" viewBox="0 0 18 18" fill="none" xmlns="http://www.w3.org/2000/svg">
<path d="M7.8 16.9154C8.53718 15.6167 9.46667 14.7227 10.5885 14.2337C11.7103 13.7446 12.6808 13.5 13.5 13.5C13.8449 13.5 14.1718 13.5237 14.4808 13.5712C14.7897 13.6186 15.0936 13.6859 15.3923 13.7731C15.8308 13.2038 16.2083 12.5045 16.525 11.675C16.8417 10.8455 17 9.95385 17 9C17 6.76667 16.225 4.875 14.675 3.325C13.125 1.775 11.2333 1 9 1C6.76667 1 4.875 1.775 3.325 3.325C1.775 4.875 1 6.76667 1 9C1 9.86538 1.12788 10.6814 1.38365 11.4481C1.63942 12.2147 1.98461 12.9154 2.41922 13.55C3.05128 13.1782 3.68589 12.9102 4.32308 12.7462C4.96026 12.5821 5.62821 12.5 6.32692 12.5C6.74487 12.5 7.15161 12.533 7.54713 12.599C7.94264 12.6651 8.26667 12.7346 8.51923 12.8077C8.32821 12.9308 8.15482 13.0551 7.99905 13.1808C7.84327 13.3064 7.68589 13.4487 7.52693 13.6077C7.40384 13.5744 7.2266 13.5481 6.9952 13.5288C6.76378 13.5096 6.54102 13.5 6.32692 13.5C5.75472 13.5 5.18699 13.5712 4.62373 13.7135C4.06048 13.8558 3.53718 14.0692 3.05385 14.3539C3.67693 15.0539 4.39777 15.6183 5.21635 16.0471C6.03493 16.476 6.89615 16.7654 7.8 16.9154ZM9.00335 18C7.7588 18 6.58872 17.7638 5.4931 17.2915C4.39748 16.8192 3.44444 16.1782 2.63397 15.3685C1.82352 14.5588 1.18192 13.6066 0.70915 12.512C0.236383 11.4174 0 10.2479 0 9.00335C0 7.7588 0.236158 6.58872 0.708475 5.4931C1.18081 4.39748 1.82183 3.44444 2.63153 2.63398C3.44123 1.82353 4.39337 1.18192 5.48795 0.709151C6.58255 0.236384 7.75212 0 8.99665 0C10.2412 0 11.4113 0.236158 12.5069 0.708475C13.6025 1.18081 14.5556 1.82182 15.366 2.63152C16.1765 3.44122 16.8181 4.39337 17.2908 5.48795C17.7636 6.58255 18 7.75212 18 8.99665C18 10.2412 17.7638 11.4113 17.2915 12.5069C16.8192 13.6025 16.1782 14.5556 15.3685 15.366C14.5588 16.1765 13.6066 16.8181 12.512 17.2909C11.4174 17.7636 10.2479 18 9.00335 18ZM6.5 10C5.66153 10 4.95192 9.70962 4.37115 9.12885C3.79038 8.54808 3.5 7.83847 3.5 7C3.5 6.16153 3.79038 5.45192 4.37115 4.87115C4.95192 4.29038 5.66153 4 6.5 4C7.33847 4 8.04808 4.29038 8.62885 4.87115C9.20962 5.45192 9.5 6.16153 9.5 7C9.5 7.83847 9.20962 8.54808 8.62885 9.12885C8.04808 9.70962 7.33847 10 6.5 10ZM6.5 9C7.04487 9 7.51442 8.80288 7.90865 8.40865C8.30288 8.01442 8.5 7.54487 8.5 7C8.5 6.45513 8.30288 5.98558 7.90865 5.59135C7.51442 5.19712 7.04487 5 6.5 5C5.95513 5 5.48558 5.19712 5.09135 5.59135C4.69712 5.98558 4.5 6.45513 4.5 7C4.5 7.54487 4.69712 8.01442 5.09135 8.40865C5.48558 8.80288 5.95513 9 6.5 9ZM13.5 11.3846C12.8323 11.3846 12.2679 11.1541 11.8069 10.6931C11.3459 10.2321 11.1154 9.6677 11.1154 9C11.1154 8.3323 11.3459 7.76794 11.8069 7.30692C12.2679 6.84589 12.8323 6.61538 13.5 6.61538C14.1677 6.61538 14.7321 6.84589 15.1931 7.30692C15.6541 7.76794 15.8846 8.3323 15.8846 9C15.8846 9.6677 15.6541 10.2321 15.1931 10.6931C14.7321 11.1541 14.1677 11.3846 13.5 11.3846Z" fill="#FAFAFA"/>
</svg>
