<svg width="16" height="16" viewBox="0 0 16 16" fill="none" xmlns="http://www.w3.org/2000/svg">
<path d="M1.61538 16C1.16794 16 0.78685 15.8426 0.4721 15.5279C0.157367 15.2132 0 14.8321 0 14.3846V1.61537C0 1.16794 0.157367 0.786849 0.4721 0.472099C0.78685 0.157366 1.16794 0 1.61538 0H14.3846C14.8321 0 15.2132 0.157366 15.5279 0.472099C15.8426 0.786849 16 1.16794 16 1.61537V14.3846C16 14.8321 15.8426 15.2132 15.5279 15.5279C15.2132 15.8426 14.8321 16 14.3846 16H1.61538ZM6.5 15V8.5H1V14.3846C1 14.5641 1.05769 14.7115 1.17308 14.8269C1.28846 14.9423 1.43589 15 1.61538 15H6.5ZM7.5 15H14.3846C14.5641 15 14.7115 14.9423 14.8269 14.8269C14.9423 14.7115 15 14.5641 15 14.3846V8.5H7.5V15ZM1 7.5H15V1.61537C15 1.43589 14.9423 1.28846 14.8269 1.17307C14.7115 1.05769 14.5641 1 14.3846 1H1.61538C1.43589 1 1.28846 1.05769 1.17308 1.17307C1.05769 1.28846 1 1.43589 1 1.61537V7.5Z" fill="#FAFAFA"/>
</svg>
