<svg width="18" height="14" viewBox="0 0 18 14" fill="none" xmlns="http://www.w3.org/2000/svg">
<path d="M6.98074 10.5H7.98074V7.5H10.9807V6.5H7.98074V3.5H6.98074V6.5H3.98074V7.5H6.98074V10.5ZM2.09611 14C1.63585 14 1.25155 13.8458 0.943213 13.5375C0.63488 13.2292 0.480713 12.8449 0.480713 12.3846V1.61537C0.480713 1.15512 0.63488 0.770833 0.943213 0.4625C1.25155 0.154167 1.63585 0 2.09611 0H12.8653C13.3256 0 13.7099 0.154167 14.0182 0.4625C14.3266 0.770833 14.4807 1.15512 14.4807 1.61537V6.26923L17.5192 3.23075V10.7692L14.4807 7.73077V12.3846C14.4807 12.8449 14.3266 13.2292 14.0182 13.5375C13.7099 13.8458 13.3256 14 12.8653 14H2.09611Z" fill="#FAFAFA"/>
</svg>
