<svg width="27" height="21" viewBox="0 0 27 21" fill="none" xmlns="http://www.w3.org/2000/svg">
<path d="M26.0977 3.61839C25.539 3.26645 24.8524 3.23531 24.267 3.53311L22.291 4.53074C21.5603 4.89893 21.107 5.64344 21.107 6.47186V14.2499C21.107 15.0783 21.5603 15.8214 22.291 16.1923L24.2657 17.1886C24.5337 17.3267 24.8204 17.393 25.107 17.393C25.451 17.393 25.7924 17.2956 26.0977 17.1047C26.6564 16.7541 26.9897 16.1463 26.9897 15.4803V5.24411C26.9897 4.57812 26.6564 3.97034 26.0977 3.61839Z" fill="#FAFAFA"/>
<path d="M13.5298 20.3618H5.80705C2.57769 20.3618 0.322998 18.1351 0.322998 14.9473V5.77637C0.322998 2.5872 2.57769 0.361816 5.80705 0.361816H13.5298C16.7592 0.361816 19.0139 2.5872 19.0139 5.77637V14.9473C19.0139 18.1351 16.7592 20.3618 13.5298 20.3618Z" fill="#FAFAFA"/>
</svg>
